HIERARCHY
ROOT Hips
{
	OFFSET -3.958830 18.904000 13.208200
	CHANNELS 6 Xposition Yposition Zposition Zrotation Yrotation Xrotation 
	JOINT LHipJoint
	{
		OFFSET 0.000000 0.000000 0.000000
		CHANNELS 3 Zrotation Yrotation Xrotation
		JOINT LeftUpLeg
		{
			OFFSET 1.800000 -1.400000 0.085000
			CHANNELS 3 Zrotation Yrotation Xrotation
			JOINT LeftLeg
			{
				OFFSET 2.215000 -6.000000 0.000000
				CHANNELS 3 Zrotation Yrotation Xrotation
				JOINT LeftFoot
				{
					OFFSET 2.500000 -6.900000 0.000000
					CHANNELS 3 Zrotation Yrotation Xrotation
					JOINT LeftToeBase
					{
						OFFSET 0.200000 -0.500000 1.950000
						CHANNELS 3 Zrotation Yrotation Xrotation
						End Site
						{
							OFFSET 0.000000 0.000000 0.000000
						}
					}
				}
			}
		}
	}
	JOINT RHipJoint
	{
		OFFSET 0.000000 0.000000 0.000000
		CHANNELS 3 Zrotation Yrotation Xrotation
		JOINT RightUpLeg
		{
			OFFSET -1.800000 -1.400000 0.085000
			CHANNELS 3 Zrotation Yrotation Xrotation
			JOINT RightLeg
			{
				OFFSET -2.215000 -6.000000 0.000000
				CHANNELS 3 Zrotation Yrotation Xrotation
				JOINT RightFoot
				{
					OFFSET -2.500000 -6.900000 0.000000
					CHANNELS 3 Zrotation Yrotation Xrotation
					JOINT RightToeBase
					{
						OFFSET -0.200000 -0.500000 1.950000
						CHANNELS 3 Zrotation Yrotation Xrotation
						End Site
						{
							OFFSET 0.000000 0.000000 0.000000
						}
					}
				}
			}
		}
	}
	JOINT LowerBack
	{
		OFFSET 0.000000 0.000000 0.000000
		CHANNELS 3 Zrotation Yrotation Xrotation
		JOINT Spine
		{
			OFFSET -0.087000 1.940000 -0.288900
			CHANNELS 3 Zrotation Yrotation Xrotation
			JOINT Spine1
			{
				OFFSET 0.000000 1.950000 0.060000
				CHANNELS 3 Zrotation Yrotation Xrotation
				JOINT Neck
				{
					OFFSET 0.000000 0.000000 0.000000
					CHANNELS 3 Zrotation Yrotation Xrotation
					JOINT Neck1
					{
						OFFSET 0.000000 1.600000 0.340000
						CHANNELS 3 Zrotation Yrotation Xrotation
						JOINT Head
						{
							OFFSET 0.000000 1.667000 -0.240000
							CHANNELS 3 Zrotation Yrotation Xrotation
							End Site
							{
								OFFSET 0.000000 0.000000 0.000000
							}
						}
					}
				}
				JOINT LeftShoulder
				{
					OFFSET 0.000000 0.000000 0.000000
					CHANNELS 3 Zrotation Yrotation Xrotation
					JOINT LeftArm
					{
						OFFSET 2.700000 1.550000 -0.730000
						CHANNELS 3 Zrotation Yrotation Xrotation
						JOINT LeftForeArm
						{
							OFFSET 5.450000 0.000000 0.000000
							CHANNELS 3 Zrotation Yrotation Xrotation
							JOINT LeftHand
							{
								OFFSET 3.450000 0.000000 0.000000
								CHANNELS 3 Zrotation Yrotation Xrotation
								JOINT LeftHandIndex1
								{
									OFFSET 0.750000 0.000000 0.000000
									CHANNELS 3 Zrotation Yrotation Xrotation
									End Site
									{
										OFFSET 0.000000 0.000000 0.000000
									}
								}
							}
						}
					}
				}
				JOINT RightShoulder
				{
					OFFSET 0.000000 0.000000 0.000000
					CHANNELS 3 Zrotation Yrotation Xrotation
					JOINT RightArm
					{
						OFFSET -2.700000 1.550000 -0.730000
						CHANNELS 3 Zrotation Yrotation Xrotation
						JOINT RightForeArm
						{
							OFFSET -5.450000 0.000000 0.000000
							CHANNELS 3 Zrotation Yrotation Xrotation
							JOINT RightHand
							{
								OFFSET -3.450000 0.000000 0.000000
								CHANNELS 3 Zrotation Yrotation Xrotation
								JOINT RightHandIndex1
								{
									OFFSET -0.750000 0.000000 0.000000
									CHANNELS 3 Zrotation Yrotation Xrotation
									End Site
									{
										OFFSET 0.000000 0.000000 0.000000
									}
								}
							}
						}
					}
				}
			}
		}
	}
}
MOTION
Frames: 13
Frame Time: 0.016667
11.071510 16.469690 -14.682250 177.840784 62.962601 164.523677 -15.301282 13.563774 3.736319 -0.682214 -4.120878 -1.697778 -15.494206 13.174875 34.178571 0.824552 8.157403 1.741667 0.119440 -0.020420 0.345520 18.110633 -9.998056 3.461427 8.445195 4.707999 -26.545231 -1.110386 -3.317035 24.687655 -0.196857 -2.458619 3.261175 -0.120970 -0.138340 0.168950 -2.803473 -3.248475 -8.288287 7.532636 -4.329235 29.475445 2.207867 -2.438820 6.491555 -0.308118 5.081979 -19.464030 6.219383 -6.892452 33.314659 -6.851830 -0.462170 -15.253340 -6.013400 -25.431579 11.040595 9.598867 -3.045355 -0.929348 5.898736 3.989234 -0.650584 -4.133267 2.271239 0.498400 -0.158020 0.271890 -0.089490 5.080494 21.632110 12.520759 40.098441 1.533966 -3.305817 -14.809763 2.843737 0.100519 2.767139 -1.270429 -0.060390 0.025770 0.005970 -0.146540 
11.240300 16.443120 -14.871790 176.171753 62.825978 164.402708 -15.335973 13.365918 3.865563 -0.865301 -5.374491 -2.235042 -17.693199 14.073424 35.432162 0.922765 8.669941 1.604517 0.045730 -0.124850 0.351210 18.114488 -9.864153 3.438131 9.104404 4.132313 -26.925322 0.333413 -3.075676 17.844687 -0.084014 -1.734560 3.548921 -0.181650 -0.114570 0.171340 -2.821496 -3.263974 -8.398137 6.875048 -5.520002 28.235568 0.748020 -3.485279 4.326615 0.707445 5.756950 -18.491541 7.490212 -6.641257 32.846477 -9.345250 1.231760 -15.992100 -7.233313 -23.987862 10.884287 3.584806 -2.092321 -0.923799 8.468441 -2.877712 -0.463771 -3.931353 2.465157 0.545600 -0.135340 0.275960 -0.110510 4.151722 19.470805 11.436263 46.019592 0.986164 -3.116268 -10.706684 -2.275335 1.315180 2.857732 -1.144291 -0.113090 0.056110 0.037290 -0.180550 
11.422720 16.419610 -15.047540 174.104083 64.576913 163.916750 -15.385610 13.099293 4.079079 1.173878 -7.044571 -3.514411 -23.693250 16.813441 36.332243 1.103518 9.864945 1.239381 -0.098630 -0.334600 0.301240 18.137109 -9.493115 3.422141 10.084644 4.432294 -26.943795 1.662686 -3.148575 15.226001 0.003805 -1.600478 3.607269 -0.258120 -0.000490 0.213710 -2.801234 -3.583009 -8.619768 6.944286 -7.211369 25.817237 -0.725073 -5.272213 3.985782 2.144877 4.469968 -17.369580 5.175128 -3.271177 33.114269 -13.206780 5.180080 -13.610640 -10.283359 -22.146659 10.752079 -2.176449 -0.101120 -0.976042 10.803122 -1.418172 -0.604704 -4.093192 2.495595 0.545370 -0.019370 0.189440 -0.173630 4.705074 18.343654 10.202600 47.223614 2.248430 -2.782904 -6.998186 -4.364648 1.540828 2.855057 -1.038835 -0.199110 0.074040 0.171870 -0.230360 
11.600440 16.349510 -15.203520 169.893537 63.273281 160.992761 -15.403382 12.823625 4.401830 1.428690 -9.521702 -5.630470 -28.161105 19.247150 39.141527 1.459145 10.862003 0.923708 -0.091810 -0.293020 0.253340 18.192058 -9.311794 3.146579 9.798430 3.726900 -27.510419 -0.238663 -2.977595 16.460896 -0.000135 -1.673557 3.568402 -0.266460 0.004830 0.271380 -2.606407 -3.917752 -8.738802 4.090653 -7.847881 23.489140 -0.733730 -6.971831 4.248291 2.337613 3.399497 -16.436739 3.030812 -1.303799 32.955496 -13.330430 6.892810 -12.245750 -10.102316 -21.115751 10.208873 -8.258167 -3.395369 -0.790911 11.097849 2.422960 -0.434209 -4.166931 2.633051 0.464950 0.015650 0.188210 -0.157380 4.616494 17.281371 9.157104 51.398353 2.018412 -3.724087 -7.287646 -5.251037 1.709700 2.893934 -1.115201 -0.117960 -0.009100 0.166100 -0.187080 
11.707560 16.322130 -15.334990 168.289250 65.599978 158.208807 -15.348676 12.430540 4.784342 5.472015 -11.659621 -7.860562 -34.370352 23.810570 42.512098 1.773598 12.401601 0.485622 -0.134420 -0.381250 0.235440 18.277223 -9.222203 3.031492 11.037212 3.754760 -26.327608 -3.267953 -2.991610 21.798414 -0.084762 -2.142706 3.414368 -0.286090 0.053580 0.196340 -2.928142 -3.692901 -8.911319 6.105303 -8.899268 25.306955 -4.175121 -6.428721 3.607036 2.495582 1.483782 -16.571565 -0.917464 0.207253 35.118414 -9.846080 5.998480 -12.297440 -9.844689 -21.208595 10.337427 -12.872251 -3.076659 -1.011998 10.942729 -1.747323 -0.729150 -4.021903 2.575008 0.562420 -0.028770 0.163460 -0.166750 4.251387 18.626988 9.105758 57.897027 1.176395 -6.199436 -9.785361 -3.614401 1.758293 2.835849 -1.058815 -0.217670 0.102550 0.213150 -0.211020 
11.840120 16.253610 -15.458040 166.350762 67.157536 156.127972 -15.348250 12.146820 5.033880 9.816684 -13.132984 -11.093052 -38.743826 26.415754 43.559210 1.899326 13.134948 0.256705 -0.056060 -0.273610 0.287260 18.356864 -8.940466 2.868684 12.572273 3.592074 -26.526660 -7.630679 -2.485076 27.016703 -0.224158 -2.763589 3.173193 -0.197090 0.060880 0.190420 -2.686204 -4.115848 -9.029374 5.246954 -8.418185 24.317932 -3.707518 -6.367933 7.345544 2.420906 -0.069529 -16.903082 -4.241261 0.389091 33.696189 -10.161580 5.081690 -13.682070 -8.713463 -24.532255 9.739632 -16.335440 -11.512771 0.647854 6.616062 12.012821 -0.369129 -4.291285 2.386507 0.550410 -0.021590 0.179130 -0.142220 3.647450 22.408619 9.818005 59.890556 1.878700 -6.577856 -8.089502 -3.476202 1.627049 2.787498 -1.088400 -0.219640 0.163330 0.179860 -0.201650 
11.974950 16.227450 -15.550090 165.055140 67.743444 153.143333 -15.272082 12.159751 5.155751 13.465128 -13.659048 -12.919702 -37.785030 26.852427 45.395954 1.786139 13.361191 0.105408 0.019680 -0.228570 0.435780 18.421893 -8.950790 2.769855 13.219653 2.994752 -24.888281 -11.064217 -2.004118 30.451890 -0.405215 -3.291100 2.965092 -0.160900 -0.046310 0.163480 -2.230064 -4.554171 -9.239095 2.814292 -7.115031 25.460489 -2.183501 -5.890604 8.999683 2.902345 0.000133 -18.252645 -5.530659 0.862924 38.299658 -12.135810 5.831070 -15.983210 -10.249122 -28.458577 10.366407 -18.696840 -13.548705 1.011838 5.032064 14.444602 -0.441953 -4.261778 2.217196 0.684660 -0.098700 0.268300 -0.175800 4.344751 26.637579 10.474294 60.771892 3.273622 -5.854927 -4.353946 -8.963187 2.324986 2.838325 -1.007222 -0.256040 0.208390 0.146800 -0.280140 
12.068620 16.172670 -15.646320 158.580278 71.757957 146.962274 -15.228544 11.904470 5.159073 14.953473 -12.570804 -15.491089 -38.695502 26.189376 42.910322 1.679048 12.960721 0.162171 0.077300 -0.110220 0.412720 18.490459 -8.886229 2.997426 15.582137 3.828491 -25.805495 -15.165803 -0.689291 35.031961 -0.605391 -4.058020 2.685080 -0.101070 -0.057810 0.161080 -2.437084 -4.291177 -9.338126 3.095518 -6.259530 25.131081 -2.915118 -4.515531 10.955906 2.362193 -1.486115 -19.174962 -8.676090 2.420538 38.868828 -10.240710 5.636970 -17.328410 -12.272524 -31.546886 10.944570 -20.630393 -14.277824 1.042785 6.132504 12.639330 -0.406605 -4.204476 2.267566 0.671760 -0.124860 0.300460 -0.157630 7.706231 30.981425 11.166650 61.100678 4.905059 -5.496311 -6.436960 -10.070438 2.670562 2.821831 -1.083379 -0.212420 0.232120 0.139560 -0.242260 
12.131160 16.099000 -15.735860 148.609955 75.625144 136.723144 -15.233495 11.672400 5.018535 17.595333 -10.766680 -17.197716 -38.092616 24.404250 39.333310 1.347211 12.333967 0.257526 0.185030 -0.000660 0.500480 18.532510 -8.823680 3.194595 17.498542 4.757205 -25.706643 -19.282502 0.984735 38.135861 -0.820315 -4.785779 2.401901 0.004060 -0.078440 0.163120 -2.464423 -4.233713 -9.322417 2.110689 -4.984025 24.809333 -2.529857 -3.248887 15.602525 1.563944 -2.217028 -19.992351 -9.653886 3.822137 37.598105 -8.994180 6.387400 -19.596570 -8.829343 -35.245519 13.064677 -24.434129 -13.550506 1.739214 6.454055 8.019377 -0.500404 -4.019593 2.350868 0.726040 -0.142680 0.331360 -0.149770 5.962964 35.053706 11.071621 63.519623 9.325626 -5.317260 -6.945529 -8.277978 2.375436 2.700919 -1.175343 -0.237730 0.276530 0.113660 -0.276510 
12.231370 16.035140 -15.830610 145.303062 77.172730 134.527073 -15.282263 11.684362 5.020445 19.728068 -9.397422 -22.460052 -32.314572 21.493968 38.726449 1.096269 11.384545 0.472506 0.239770 0.105120 0.498270 18.467327 -8.773354 3.526040 18.724884 5.977619 -26.599832 -20.282509 1.772790 40.854133 -0.964012 -5.218831 2.280882 0.005590 -0.131450 0.176380 -2.762292 -3.808594 -9.471388 3.287127 -4.133061 24.526923 -2.791417 -1.812446 12.873471 1.521648 -2.152825 -20.147473 -10.170594 4.008795 40.463271 -8.831250 6.518900 -19.726550 -15.593707 -35.408656 11.069459 -22.197046 -17.235097 1.211798 7.669911 8.127510 -0.439781 -4.068667 2.375141 0.686460 -0.175480 0.388140 -0.108180 12.980920 35.921882 12.181179 61.441023 6.867373 -4.892217 -9.121846 -5.809551 2.132435 2.694839 -1.209510 -0.143420 0.231670 0.045350 -0.227290 
12.309810 15.976040 -15.941730 136.627644 79.533902 127.071440 -15.351682 11.753244 4.795349 21.650826 -6.702176 -24.484421 -28.229739 17.520164 32.408635 0.608228 9.845351 0.894679 0.293040 0.215430 0.447160 18.403459 -8.753034 3.754045 18.679275 7.275286 -27.048692 -19.347352 1.867270 41.396238 -0.952874 -5.301621 2.252754 0.093570 -0.066580 0.215850 -3.168644 -3.265972 -9.326288 5.275688 -3.578065 22.008133 -3.392859 -0.711496 14.674480 1.128321 -3.028136 -19.456451 -10.808846 4.249820 38.280236 -8.944820 6.203660 -18.447040 -17.123578 -35.990213 10.484704 -23.001929 -19.806646 0.569069 11.339383 5.223925 -0.712317 -4.104547 2.565940 0.585990 -0.097080 0.352530 -0.046970 15.320749 37.440216 12.355802 58.820167 9.629175 -2.550143 -7.501856 -6.469755 1.910991 2.662854 -1.301694 -0.109240 0.227340 0.026770 -0.173080 
12.375890 15.962080 -16.028140 133.681758 80.892471 123.760545 -15.350546 12.109521 4.546180 22.239341 -5.082565 -25.781128 -22.192449 13.695113 27.966777 0.171863 8.223813 1.362545 0.328470 0.248390 0.499530 18.335461 -8.863682 3.972433 19.387362 7.482479 -26.437652 -20.408421 2.329353 41.887302 -1.035072 -5.425232 2.208656 0.089460 -0.132900 0.213250 -3.286932 -3.184998 -9.304991 5.668316 -3.653688 22.817839 -3.312627 -0.529065 15.392907 1.417343 -3.141986 -21.450980 -11.577909 5.387415 40.452868 -9.213410 7.144850 -20.109080 -16.744072 -38.701587 11.720090 -23.421192 -20.844973 0.231503 12.725907 3.727479 -0.855383 -4.023740 2.591401 0.634460 -0.151530 0.409880 -0.057730 14.560422 40.703085 12.652145 58.385812 12.866677 -1.388129 -6.761819 -4.018413 1.635236 2.625119 -1.285992 -0.088110 0.217940 0.001670 -0.189480 
12.409230 15.929370 -16.123620 133.591977 81.233339 124.646352 -15.413746 12.426359 4.252537 21.159830 -3.866532 -29.592618 -14.222270 9.665386 23.123772 -0.308338 6.310711 2.042968 0.321870 0.217600 0.470940 18.248156 -8.849593 4.187233 19.684693 8.021968 -28.431445 -22.815551 3.387218 42.276140 -1.032851 -5.739750 2.083700 0.131970 -0.037570 0.221860 -3.785782 -2.658348 -9.115040 7.412691 -4.353580 21.453638 -5.959801 -0.114517 16.632464 1.533305 -2.505860 -21.692058 -9.673289 5.307967 37.746104 -7.800700 6.999900 -17.264520 -16.121050 -40.080811 11.901404 -19.844566 -23.138456 -0.601515 12.858187 -0.343720 -1.375955 -4.091851 2.633325 0.567560 -0.069280 0.310040 -0.036110 13.306087 41.402959 12.065389 57.585568 16.677437 0.174933 -4.806051 1.212486 0.803352 2.508194 -1.368565 -0.135510 0.214280 0.015340 -0.187170 
